<svg xmlns="http://www.w3.org/2000/svg" fill="none" viewBox="0 0 48 48" height="48" width="48"><path stroke="#000000" stroke-linecap="round" stroke-linejoin="round" d="M2.714 47c-0.299 -8.89 1.154 -22.7 6.895 -32.406m7.71 4.859c5.5 1.079 17.639 0.617 22.888 -1.512 7.355 -2.982 6.047 -8.097 3.24 -10.797 -3.537 -3.4 -8.638 -4.012 -14.564 -4.011 -5.448 0 -9.795 1.649 -13.29 4.43" stroke-width="1"></path><path stroke="#000000" stroke-linecap="round" stroke-linejoin="round" d="M39.875 18.131c1.289 3.78 3.264 22.763 3.007 28.748" stroke-width="1"></path><path stroke="#000000" stroke-linecap="round" stroke-linejoin="round" d="m7.96 32.562 9.298 14.36c3.133 -1.605 4.22 -6.173 3.798 -7.048l-5.001 -4.789a3.742 3.742 0 0 1 5.14 -5.44l1.843 1.718 1.79 -1.72a3.713 3.713 0 1 1 5.141 5.36l-5.021 4.809c-0.422 0.874 0.665 5.443 3.798 7.048l9.299 -14.36" stroke-width="1"></path><path stroke="#000000" stroke-linejoin="round" d="M14.56 6.915a3.64 3.64 0 0 1 -0.212 0.51c0.421 -0.024 0.862 0.031 1.298 0.174 1.635 0.537 2.586 2.112 2.125 3.518 -0.394 1.2 -1.69 1.89 -3.078 1.731 0.055 0.155 0.101 0.317 0.136 0.484 0.353 1.684 -0.535 3.295 -1.984 3.598 -1.448 0.304 -2.908 -0.816 -3.26 -2.5a3.634 3.634 0 0 1 -0.072 -0.534 3.63 3.63 0 0 1 -0.374 0.388c-1.282 1.147 -3.122 1.183 -4.109 0.08 -0.986 -1.102 -0.747 -2.926 0.535 -4.074a3.68 3.68 0 0 1 0.422 -0.325c-1.15 -0.709 -1.743 -1.994 -1.36 -3.163 0.462 -1.406 2.162 -2.11 3.797 -1.574 0.341 0.112 0.653 0.27 0.928 0.461 0.029 -0.148 0.067 -0.297 0.116 -0.446 0.537 -1.635 2.112 -2.586 3.518 -2.124 1.406 0.461 2.11 2.16 1.573 3.796Z" stroke-width="1"></path><path fill="#000000" d="M8.448 9.075a2.368 2.368 0 1 0 4.5 1.478 2.368 2.368 0 1 0 -4.5 -1.478" stroke-width="1"></path><path fill="#000000" fill-rule="evenodd" d="M38.141 10.296a1.525 1.525 0 1 0 0 3.05 1.525 1.525 0 0 0 0 -3.05Z" clip-rule="evenodd" stroke-width="1"></path><path fill="#000000" fill-rule="evenodd" d="M23.08 11.821a1.525 1.525 0 1 0 0 3.05 1.525 1.525 0 0 0 0 -3.05Z" clip-rule="evenodd" stroke-width="1"></path></svg>