<svg xmlns="http://www.w3.org/2000/svg" fill="none" viewBox="0 0 48 48" height="48" width="48"><path fill="#000000" fill-rule="evenodd" d="M6.46896 37.76448c-1.0608 -3.1833599999999995 -4.24416 -6.897119999999999 -3.7132799999999997 -16.8 0.17664 -4.068 0.70704 -7.781759999999999 3.00624 -11.14176C10.7136 2.74896 20.2632 -0.43488 28.04448 1.51104c9.37296 2.2992 14.324639999999999 8.48832 16.800479999999997 18.0384C47.3208 29.4528 41.3088 42.362399999999994 36.7104 44.1312c-0.35328 0.17664 -0.17664 0.5304 0.17712 0.5304 4.9516800000000005 -1.9454399999999998 11.141279999999998 -15.03216 8.66544 -25.289279999999998C43.07664 9.46896 37.94784 3.10272 28.2216 0.62688 19.90944 -1.49568 10.006079999999999 1.8647999999999998 4.87776 9.29232 1.164 14.7744 1.164 25.561919999999997 3.46272 32.282399999999996c0.7075199999999999 1.7683200000000001 1.9454399999999998 4.06752 2.4758400000000003 5.659199999999999 0.17712 0.35328 0.7075199999999999 0.17664 0.5304 -0.17712Z" clip-rule="evenodd" stroke-width="1"></path><path fill="#000000" fill-rule="evenodd" d="M32.32752 45.23376c1.5916799999999998 -6.366719999999999 4.9435199999999995 -6.4079999999999995 4.7664 -9.768479999999998 0 -1.41456 -2.85984 -1.0608 -4.09776 -0.5304 -2.2992 1.0608 -3.7137599999999997 3.5366400000000002 -4.77504 5.835839999999999 -3.5366400000000002 0.35375999999999996 -7.7808 -0.35375999999999996 -10.96416 -1.9454399999999998 -1.5916799999999998 -0.8841600000000001 -3.1833599999999995 -2.12208 -4.42128 -3.36 -2.6529599999999998 -2.6524799999999997 -5.83632 -1.2384 -1.9454399999999998 3.8904 2.12208 2.8295999999999997 4.24416 4.06752 7.2508799999999995 5.1288 0.35375999999999996 0.17664 0.5304 -0.35375999999999996 0.17664 -0.5304 -2.8295999999999997 -1.0608 -4.774559999999999 -2.2992 -6.72 -5.1288 -0.7075199999999999 -1.0608 -2.12208 -3.5366400000000002 -1.4150399999999999 -3.8904 1.5916799999999998 -0.53088 3.00672 2.8295999999999997 6.8976 4.774559999999999 4.4208 2.2992 11.671679999999999 2.8295999999999997 12.202079999999999 1.7688 1.2379200000000001 -2.8295999999999997 3.00624 -5.659199999999999 6.01296 -6.01296 0.35375999999999996 0 0.73536 -0.09312 0.73536 0.26064 0.17712 2.8295999999999997 -2.80896 2.4556799999999996 -4.5777600000000005 9.17616 -0.1296 0.49344 0.69792 0.6854399999999999 0.87456 0.33119999999999994Z" clip-rule="evenodd" stroke-width="1"></path><path fill="#000000" fill-rule="evenodd" d="M11.244 44.48496c-3.5366400000000002 -6.01296 -0.35375999999999996 -5.1283199999999995 -0.5304 -5.835839999999999 -0.17664 -1.0608 -4.4208 1.0608 0.17664 6.1895999999999995 0.17712 0.17664 0.53088 -0.17664 0.35375999999999996 -0.35375999999999996Z" clip-rule="evenodd" stroke-width="1"></path><path fill="#000000" fill-rule="evenodd" d="M19.2024 32.63664c1.0608 0.17664 2.8295999999999997 1.0608 3.8904 2.1216 0.17712 0.35424 0.7075199999999999 0 0.35375999999999996 -0.35328 -1.0608 -1.5916799999999998 -2.2992 -2.4758400000000003 -4.24416 -2.2992 -0.17712 0 -0.35375999999999996 0.53088 0 0.53088Z" clip-rule="evenodd" stroke-width="1"></path><path fill="#000000" fill-rule="evenodd" d="M12.83568 6.63936c4.77504 1.06128 7.958399999999999 3.36 9.196319999999998 7.958399999999999 0.17664 0.35375999999999996 0.5304 0.17664 0.5304 -0.17664 -1.2384 -5.83632 -4.06752 -7.428 -9.5496 -8.4888 -0.53088 0.17664 -0.53088 0.70704 -0.17712 0.70704Z" clip-rule="evenodd" stroke-width="1"></path><path fill="#000000" fill-rule="evenodd" d="M33.526559999999996 8.408159999999999c1.9454399999999998 -0.53088 3.8908799999999997 -1.0608 4.95216 -1.2384 2.1216 -0.35328 2.2992 0 2.47536 -0.35328 0.17712 -0.7075199999999999 -3.00624 -0.7075199999999999 -5.481599999999999 0.17664 -0.7075199999999999 0.35375999999999996 -1.4150399999999999 0.7075199999999999 -2.12256 0.8841600000000001 -0.17664 0.17712 0 0.7075199999999999 0.17664 0.53088Z" clip-rule="evenodd" stroke-width="1"></path><path fill="#000000" fill-rule="evenodd" d="M16.019039999999997 12.29856c-2.6529599999999998 -1.9454399999999998 -6.1895999999999995 -1.2379200000000001 -7.958399999999999 0.7075199999999999 -3.18288 3.5366400000000002 -1.41456 9.903360000000001 3.00672 11.141279999999998 6.3662399999999995 1.7683200000000001 10.61088 -6.897119999999999 5.835839999999999 -11.318399999999999 -0.17712 -0.17664 -0.5304 0.17712 -0.35375999999999996 0.35375999999999996 4.06752 3.8908799999999997 0.17664 11.67216 -5.30544 9.903360000000001 -4.9516800000000005 -1.41456 -5.835839999999999 -10.43376 0.8841600000000001 -11.318399999999999 1.2384 -0.17664 2.4758400000000003 0.17759999999999998 3.53712 0.88464 0.35375999999999996 0.35375999999999996 0.7075199999999999 -0.17712 0.35375999999999996 -0.35375999999999996Z" clip-rule="evenodd" stroke-width="1"></path><path fill="#000000" fill-rule="evenodd" d="M8.23776 13.7136c2.6529599999999998 0.35375999999999996 7.60464 1.41456 10.08 3.1833599999999995 0.35424 0.17664 0.53088 -0.17712 0.35424 -0.35375999999999996 -3.1833599999999995 -2.4758400000000003 -6.1895999999999995 -3.36 -10.2576 -3.1833599999999995 -0.5304 -0.17664 -0.5304 0.35375999999999996 -0.17664 0.35375999999999996Z" clip-rule="evenodd" stroke-width="1"></path><path fill="#000000" fill-rule="evenodd" d="M7.707359999999999 20.786879999999996c3.5366400000000002 1.9454399999999998 7.958399999999999 1.5916799999999998 10.787519999999999 -1.41456 0.17712 -0.17712 -0.17664 -0.5304 -0.35375999999999996 -0.35375999999999996 -2.4758400000000003 2.2992 -7.2504 2.4758400000000003 -10.257119999999999 1.2384 -0.35375999999999996 -0.17759999999999998 -0.5304 0.35328 -0.17664 0.5299200000000001Z" clip-rule="evenodd" stroke-width="1"></path><path fill="#000000" fill-rule="evenodd" d="M33.88032 14.59728c-3.5366400000000002 -1.2379200000000001 -8.13504 1.7688 -7.958399999999999 5.659199999999999 0 2.12208 1.2384 3.8908799999999997 2.8300799999999997 4.9516800000000005 5.30544 3.36 12.379199999999999 -4.06752 7.07376 -9.5496 -0.17664 -0.17712 -0.7075199999999999 0.17664 -0.35375999999999996 0.35375999999999996 4.5984 4.774559999999999 -1.5916799999999998 11.318399999999999 -6.01296 8.311679999999999 -5.835839999999999 -3.7137599999999997 -0.35328 -10.96464 4.42128 -9.19584 0.17712 0.17664 0.35375999999999996 -0.35375999999999996 0 -0.53088Z" clip-rule="evenodd" stroke-width="1"></path><path fill="#000000" fill-rule="evenodd" d="M27.6912 16.89648c3.00624 0.17712 7.0732800000000005 0.8841600000000001 9.19584 3.1833599999999995 0.17664 0.35375999999999996 0.70704 0 0.35375999999999996 -0.35375999999999996 -2.2992 -3.18288 -5.659199999999999 -3.7137599999999997 -9.55008 -3.36 -0.35375999999999996 0 -0.35375999999999996 0.5304 0 0.5304Z" clip-rule="evenodd" stroke-width="1"></path><path fill="#000000" fill-rule="evenodd" d="M26.4528 21.31776c2.2992 3.36 6.8976 4.06752 10.2576 1.41456 0.35328 -0.17664 0 -0.7075199999999999 -0.35375999999999996 -0.35375999999999996 -2.6529599999999998 1.9454399999999998 -7.428 1.0608 -9.55008 -1.41456 -0.17664 -0.35375999999999996 -0.70704 0 -0.35375999999999996 0.35375999999999996Z" clip-rule="evenodd" stroke-width="1"></path><path fill="#000000" fill-rule="evenodd" d="M8.76816 13.536c-1.7683200000000001 0.88464 -1.0608 3.8908799999999997 1.2384 3.1833599999999995 2.47536 -0.8841600000000001 1.2374399999999999 -3.8904 -1.06128 -3.36 -0.17712 0 -0.17712 0.17712 -0.17712 0.17712Z" clip-rule="evenodd" stroke-width="1"></path><path fill="#000000" fill-rule="evenodd" d="M28.574879999999997 16.366079999999997c-0.17664 0 -1.0608 0.5304 -1.0608 0.8841600000000001 -0.5304 0.8841600000000001 -0.35375999999999996 1.9449599999999998 0.7075199999999999 2.4758400000000003 1.9449599999999998 1.0608 4.24416 -1.9454399999999998 1.9449599999999998 -3.1833599999999995 -0.5304 -0.17664 -1.0608 -0.35375999999999996 -1.5916799999999998 -0.17664Z" clip-rule="evenodd" stroke-width="1"></path></svg>