<svg xmlns="http://www.w3.org/2000/svg" fill="none" viewBox="0 0 48 48" height="48" width="48"><path fill="#000000" fill-rule="evenodd" d="M25.45104 15.31728c-1.2768 0.6384 -7.34064 5.904 -10.05312 5.2656 -3.51072 -0.6379199999999999 -5.10624 3.8304 -2.07456 5.42592 3.82992 2.07408 7.5 1.2768 11.01072 -1.11696 2.07408 -1.4361599999999999 4.6272 -4.468319999999999 5.42544 -6.063839999999999 1.27632 -2.5536 -1.2768 -4.946879999999999 -4.30848 -3.51072Zm1.5955199999999998 0.15984c-1.75536 0.15936 -2.8723199999999998 1.5955199999999998 -4.946879999999999 3.0316799999999997 -1.43568 1.11696 -4.78704 3.51072 -6.86112 3.0316799999999997 -2.5536 -0.47856 -3.67008 2.71296 -1.596 3.82992 3.51072 1.9152 6.8616 1.11696 10.21248 -0.9576 1.9152 -1.2768 4.62768 -4.30848 5.42544 -5.7446399999999995 0.9576 -1.91472 -0.3192 -3.3504 -2.23392 -3.1910399999999997Z" clip-rule="evenodd" stroke-width="1"></path><path fill="#000000" fill-rule="evenodd" d="M17.31264 20.74272c-0.3192 -3.5102399999999996 -0.3192 -9.09552 2.71296 -7.34016 1.5955199999999998 0.9576 2.39328 2.07456 3.67008 3.51072 0.15936 0.15936 0.6384 -0.15984 0.3192 -0.3192 -1.2768 -1.4361599999999999 -1.9152 -2.71296 -3.51072 -3.82992 -1.4361599999999999 -0.95712 -2.8723199999999998 -0.6384 -3.51072 1.11696 -0.7977599999999999 2.07456 -0.31872 4.78704 0 7.02144 0 0.15936 0.3192 0.15936 0.3192 -0.15984Z" clip-rule="evenodd" stroke-width="1"></path><path fill="#000000" fill-rule="evenodd" d="M17.15328 18.98736c0.7977599999999999 -1.2768 3.5102399999999996 -3.3508799999999996 5.2656 -3.67008 0.3192 0 0.3192 -0.47856 0 -0.47856 -2.23392 0.15936 -4.6272 1.5955199999999998 -5.5847999999999995 3.9888 -0.3192 0.31968 0.15936 0.47903999999999997 0.3192 0.15984Z" clip-rule="evenodd" stroke-width="1"></path><path fill="#000000" fill-rule="evenodd" d="M28.96128 19.94448c0.79824 0.3192 2.23392 1.4361599999999999 2.8723199999999998 2.5536 0.15984 0.31872 0.6384 0 0.47903999999999997 -0.15984 -0.6384 -1.5955199999999998 -1.4361599999999999 -2.5536 -3.192 -2.71248 -0.47808 -0.15984 -0.47808 0.15936 -0.15936 0.31872Z" clip-rule="evenodd" stroke-width="1"></path><path fill="#000000" fill-rule="evenodd" d="M14.1216 26.008319999999998c-2.07456 6.063839999999999 -6.70224 4.468319999999999 -7.1808000000000005 7.97856 -0.47903999999999997 4.14912 5.2656 6.383039999999999 8.13792 3.67056 2.71248 -2.71296 2.23392 -7.02144 1.9152 -10.85088 0 -0.3192 -0.47903999999999997 -0.3192 -0.47903999999999997 0 0.3192 3.5102399999999996 0.6384 7.97856 -1.9152 10.37184 -2.23392 2.07456 -7.02096 0.3192 -6.701759999999999 -3.0316799999999997 0.3192 -2.8723199999999998 4.78704 -1.4361599999999999 6.70224 -7.8191999999999995 0.15936 -0.47856 -0.3192 -0.6384 -0.47903999999999997 -0.31872Z" clip-rule="evenodd" stroke-width="1"></path><path fill="#000000" fill-rule="evenodd" d="M24.971999999999998 25.53024c-3.67008 0.15936 -4.946879999999999 4.78704 -3.5102399999999996 7.65936 2.39328 4.46784 8.13792 1.2768 6.701759999999999 -4.30848 -0.47856 -1.9152 -2.23392 -3.3508799999999996 -2.5536 -2.8723199999999998 -0.31872 0.47856 1.2768 0.3192 1.9152 3.0316799999999997 1.11696 4.62768 -3.1915199999999997 7.34064 -5.2656 3.82992 -1.2768 -2.39376 -0.3192 -6.5424 2.71248 -6.70224 0.47903999999999997 -0.15936 0.3192 -0.6384 0 -0.6384Z" clip-rule="evenodd" stroke-width="1"></path><path fill="#000000" fill-rule="evenodd" d="M25.795679999999997 29.21952c-1.2100799999999998 -0.39071999999999996 -2.4023999999999996 1.09536 -1.1870399999999999 2.02224 1.08 0.79392 2.27232 -0.69216 1.5931199999999999 -1.62384l-0.40608 -0.3984Z" clip-rule="evenodd" stroke-width="1"></path><path fill="#000000" fill-rule="evenodd" d="M26.066399999999998 29.484959999999997c0.13296 -0.13535999999999998 -0.0024 -0.26784 -0.13776 -0.4008 -1.61616 -0.78864 -3.2039999999999997 1.3713600000000001 -1.4500799999999998 2.5608 1.4831999999999999 0.9239999999999999 3.0739199999999998 -0.96768 2.1239999999999997 -2.1647999999999996 -0.40559999999999996 -0.3984 -0.6691199999999999 0.14015999999999998 -0.53616 0.0048Zm0 0c-0.13296 0.13535999999999998 -0.13248000000000001 0.13535999999999998 -0.26784 0.0024 -0.40319999999999995 -0.1296 -0.9369599999999999 0.14304 -1.06752 0.54672 -0.39552 0.67392 0.5519999999999999 1.6032 1.21536 0.9263999999999999 0.26544 -0.27071999999999996 0.39599999999999996 -0.67392 0.25776 -1.07472 -0.27024 -0.26544 -0.13776 -0.4008 -0.13776 -0.4008Z" clip-rule="evenodd" stroke-width="1"></path><path fill="#000000" fill-rule="evenodd" d="M32.63136 22.17888c-2.8723199999999998 0.15936 -3.9888 3.5102399999999996 -3.0316799999999997 5.904 1.2768 2.8723199999999998 6.063839999999999 2.39328 6.38256 -1.5955199999999998 0.3192 -3.35136 -2.8718399999999997 -4.62768 -3.0316799999999997 -3.82992 0 0.15936 0 0.3192 0.15984 0.3192 1.5955199999999998 0.3192 2.39328 2.07456 2.07408 3.51072 -0.3192 3.1910399999999997 -3.82944 3.3504 -4.9464 1.27632 -0.9576 -1.75536 0 -4.78704 2.23392 -4.946879999999999 0.47856 -0.31872 0.3192 -0.7977599999999999 0.15936 -0.6384Z" clip-rule="evenodd" stroke-width="1"></path><path fill="#000000" fill-rule="evenodd" d="M33.12672 25.38816c-0.948 0.3792 -0.7584 2.0856 0.3792 1.896 1.1376 0 1.1376 -1.7064 0 -1.896h-0.3792Z" clip-rule="evenodd" stroke-width="1"></path><path fill="#000000" fill-rule="evenodd" d="M33.316320000000005 25.199039999999997c-0.1896 -0.3792 -1.3272 0.1896 -1.3272 1.3272 0 1.7059199999999999 2.6544 1.51632 2.6544 -0.1896 0 -0.948 -1.1376 -1.3272 -1.3272 -1.1376Zm0 0.3792c-0.1896 0.1896 -0.5688 0.1896 -0.3792 0.948s0.948 0.5683199999999999 1.1376 0c0 -0.948 -0.7584 -0.7584 -0.7584 -0.948Z" clip-rule="evenodd" stroke-width="1"></path><path fill="#000000" fill-rule="evenodd" d="M30.078239999999997 29.9976c0.47856 -0.15936 6.063839999999999 -0.6384 7.34016 -0.7977599999999999 3.03216 0 3.192 0.6384 3.3508799999999996 0.15984 0.3192 -0.6384 -3.3504 -1.75536 -9.73344 -0.3192 -0.6384 0.15936 -1.2768 0.3192 -1.2768 0.6384 0 0.31872 0.15984 0.31872 0.3192 0.31872Z" clip-rule="evenodd" stroke-width="1"></path><path fill="#000000" fill-rule="evenodd" d="M42.525119999999994 33.667680000000004c-1.2768 2.71248 -5.10624 3.1915199999999997 -7.97856 2.71248 -3.98928 -0.7977599999999999 -4.946879999999999 -2.23392 -5.2656 -1.75536l0 0.3192c6.5424 4.468319999999999 12.28656 2.39376 13.56288 -0.95712 0.15984 -0.47903999999999997 -0.15936 -0.6384 -0.31872 -0.3192Z" clip-rule="evenodd" stroke-width="1"></path><path fill="#000000" fill-rule="evenodd" d="M27.52512 35.742239999999995c1.9152 0.15936 3.67008 -1.4361599999999999 3.03216 -3.03216 0 -0.3192 -0.47903999999999997 -0.15936 -0.47903999999999997 0.15984 0.15984 1.2768 -1.75488 2.23392 -2.55312 2.39328 -0.3192 0 -0.3192 0.47903999999999997 0 0.47903999999999997Z" clip-rule="evenodd" stroke-width="1"></path><path fill="#000000" fill-rule="evenodd" d="M43.0032 29.359199999999998c-4.6272 -1.596 -7.02096 3.0316799999999997 -3.6695999999999995 4.6272 3.3504 1.596 7.02096 -1.91472 4.14864 -4.308 -0.3192 -0.15984 -0.47856 0.15936 -0.3192 0.3192 0.9576 0.95712 0.9576 2.39328 -0.47856 3.0316799999999997 -2.5536 1.4361599999999999 -5.585279999999999 -0.9576 -3.3508799999999996 -2.71296 0.95712 -0.7977599999999999 2.39328 -0.95712 3.5102399999999996 -0.47856 0.3192 0 0.3192 -0.3192 0.15984 -0.47856Z" clip-rule="evenodd" stroke-width="1"></path><path fill="#000000" fill-rule="evenodd" d="M14.91888 37.33824c-0.47856 2.71296 -0.6384 3.1915199999999997 -0.31872 7.65936 0 0.3192 0.47856 0.3192 0.47856 0 0 -1.4361599999999999 0.15936 -0.15936 0.3192 -7.65936 0 -0.3192 -0.47903999999999997 -0.3192 -0.47903999999999997 0Z" clip-rule="evenodd" stroke-width="1"></path><path fill="#000000" fill-rule="evenodd" d="M34.38672 36.699839999999995c1.75536 7.5 1.75536 7.02144 1.75536 7.02144 0 0.3192 0.47856 0.15936 0.47856 -0.15984 -0.47856 -4.46784 -0.9576 -5.10624 -1.75536 -7.1808000000000005 -0.15936 -0.15936 -0.47856 0 -0.47856 0.3192Z" clip-rule="evenodd" stroke-width="1"></path><path fill="#000000" fill-rule="evenodd" d="M20.982719999999997 42.1248c-0.47856 1.2768 -0.47856 2.39376 0.47903999999999997 3.67056 0.15936 0.3192 0.6384 0 0.47856 -0.15984 -0.15984 -0.47856 -0.15984 -1.11696 -0.3192 -1.4361599999999999 -0.15936 -1.75488 0 -2.07408 -0.3192 -2.23392 -0.15936 0 -0.3192 0 -0.3192 0.15984Z" clip-rule="evenodd" stroke-width="1"></path><path fill="#000000" fill-rule="evenodd" d="M23.05728 42.28464c-0.15984 1.2768 0 2.39376 1.11696 3.67008 0.15984 0.3192 0.6384 0 0.47856 -0.3192 -0.47856 -1.11696 -0.7977599999999999 -3.67008 -1.2768 -3.67008 -0.15936 0 -0.31872 0.15984 -0.31872 0.3192Z" clip-rule="evenodd" stroke-width="1"></path><path fill="#000000" fill-rule="evenodd" d="M7.73856 45.15696c-4.468319999999999 -1.4361599999999999 -7.1808000000000005 -6.383039999999999 -6.8616 -11.169599999999999 0.3192 0.95712 0.9576 1.91472 1.4361599999999999 2.712 0.15936 0.31968 0.6384 0.15984 0.6384 -0.31872 -0.9576 -7.1808000000000005 5.74416 -11.32944 3.1910399999999997 -16.27632 0.79824 0.47856 1.4361599999999999 0.9576 1.9152 1.75536 0.15936 0.3192 0.6384 0.15936 0.7977599999999999 -0.15984 0.6384 -4.14864 2.71248 -9.09504 6.38256 -11.169599999999999 2.71296 -1.4361599999999999 6.22368 -1.75536 8.61696 -3.82992 1.2768 -1.11696 1.75536 -2.8723199999999998 0.9576 -4.14864C30.876 4.94496 35.822399999999995 11.9664 33.26976 18.02976c-0.47856 1.11696 3.1915199999999997 -0.7977599999999999 4.46784 -4.308 0.15984 -0.3192 -0.3192 -0.47903999999999997 -0.47856 -0.15984 -0.6384 1.5955199999999998 -1.75536 3.0316799999999997 -3.1915199999999997 3.98928 2.39376 -7.02096 -4.14864 -14.840160000000001 -11.169599999999999 -16.27632 -0.47903999999999997 -0.15936 -0.6384 0.6384 -0.15984 0.7977599999999999 2.07456 0.6384 2.39376 2.71296 0.6384 4.14912 -4.30848 3.51072 -12.60624 1.11696 -15.31872 14.520959999999999 -0.7977599999999999 -0.7977599999999999 -1.9152 -1.596 -3.192 -1.9152 -0.47808 -0.15936 -0.79728 0.47903999999999997 -0.47808 0.79824 4.14864 3.9888 -2.5536 8.93568 -2.39376 15.63792 -0.47856 -0.7977599999999999 -0.9576 -1.9152 -1.11696 -2.8723199999999998 0 -0.3192 -0.6384 -0.3192 -0.6384 0 -1.11696 5.42544 1.75536 11.64864 7.1808000000000005 13.404 0.47856 0 0.6384 -0.47903999999999997 0.3192 -0.6384Z" clip-rule="evenodd" stroke-width="1"></path><path fill="#000000" fill-rule="evenodd" d="M37.25904 13.72176c1.11696 2.71248 1.5955199999999998 5.74416 0.47856 8.45712a0.3528 0.3528 0 0 0 0.47903999999999997 0.47856c1.4361599999999999 -0.7977599999999999 2.55312 -1.75536 3.3504 -3.1915199999999997 0.15984 3.82992 2.07504 5.2656 3.67056 8.138399999999999 2.8723199999999998 5.5847999999999995 3.1915199999999997 13.56336 -2.8723199999999998 15.63792 -0.3192 0.15936 -0.15936 0.47856 0.15936 0.47856 6.383039999999999 -2.23392 6.383039999999999 -10.37184 3.51072 -16.59504 -2.07456 -4.30848 -3.3508799999999996 -3.82992 -3.51072 -9.41472 0 -0.47903999999999997 -0.6384 -0.6384 -0.7977599999999999 -0.15984 -0.6384 1.596 -1.5955199999999998 2.71296 -2.8723199999999998 3.67008 0.6384 -2.55312 0 -5.42544 -0.95712 -7.97856 -0.3192 0 -0.79824 0.15984 -0.6384 0.47903999999999997Z" clip-rule="evenodd" stroke-width="1"></path></svg>