<svg xmlns="http://www.w3.org/2000/svg" fill="none" viewBox="0 0 48 48" height="48" width="48"><path fill="#000000" fill-rule="evenodd" d="M31.645439999999997 11.53008c-7.47504 -1.4016 -9.655199999999999 -0.15552 -12.92592 1.7135999999999998 -1.09008 0.6225599999999999 -2.4916799999999997 1.2456 -3.27024 2.3356799999999995 -0.62304 0.93456 2.6471999999999998 1.55712 3.7372799999999997 2.0246399999999998 2.0246399999999998 0.9340799999999999 4.0492799999999995 2.0246399999999998 6.073919999999999 2.4912 4.51632 1.0905599999999998 9.344159999999999 -0.6225599999999999 8.87712 -4.983359999999999 -0.156 -1.55712 -1.4016 -3.27024 -1.7135999999999998 -2.8032 -0.31104 0.46752 1.0905599999999998 0.46752 1.24608 2.9592 0.312 4.0488 -4.2048 5.29488 -8.25408 4.2048 -2.0246399999999998 -0.46703999999999996 -3.8927999999999994 -1.55712 -5.9179200000000005 -2.4916799999999997 -0.9340799999999999 -0.46752 -2.18016 -0.62304 -3.1147199999999997 -1.09008 0.62304 -0.77904 4.3608 -2.8032 4.5168 -2.8032 5.1388799999999994 -2.64768 10.74528 -0.312 10.9008 -1.0905599999999998 0.156 -0.31104 0 -0.46703999999999996 -0.15552 -0.46703999999999996Z" clip-rule="evenodd" stroke-width="1"></path><path fill="#000000" fill-rule="evenodd" d="M33.51456 13.399199999999999c1.8686399999999999 -0.93456 5.6064 -1.7135999999999998 7.786560000000001 -1.8686399999999999 0.312 0 0.312 -0.46752 0 -0.46752 -2.9587199999999996 -0.15552 -5.76192 0.156 -8.09808 1.86912 -0.156 0.31104 0 0.6225599999999999 0.31152 0.46703999999999996Z" clip-rule="evenodd" stroke-width="1"></path><path fill="#000000" fill-rule="evenodd" d="M43.325759999999995 11.9976c0.93456 0.15552 2.0246399999999998 0.46703999999999996 2.64768 1.2456 1.0896 0.93456 1.71312 2.9592 0.6225599999999999 4.0492799999999995 -0.77856 0.77856 -2.0241599999999997 0.77856 -3.1147199999999997 0.93456 -2.3356799999999995 0.46703999999999996 -8.0976 1.4016 -9.8112 -0.62304 -0.77856 -0.93456 -1.2456 3.1147199999999997 9.9672 1.4016 1.24608 -0.15552 2.64768 -0.31152 3.5817599999999996 -1.09008 1.4016 -1.4016 0.77904 -3.8932800000000003 -0.77856 -5.13936 -0.93456 -0.77856 -1.96704 -1.01856 -3.05712 -1.17408 -0.22272 -0.03216 -0.36912 0.39552 -0.0576 0.39552Z" clip-rule="evenodd" stroke-width="1"></path><path fill="#000000" fill-rule="evenodd" d="M42.8184 14.247359999999999c-2.59776 0.32448 -1.46112 3.0849599999999997 0.32448 2.92272 1.78608 -0.32496 1.62384 -3.24768 -0.64944 -2.76l0.32496 -0.1632Z" clip-rule="evenodd" stroke-width="1"></path><path fill="#000000" fill-rule="evenodd" d="M42.65616 14.08512c-2.9232 0.16224 -1.9487999999999996 3.89664 0.48672 3.4094399999999996 2.43552 -0.16224 2.1110399999999996 -3.7344 -0.48672 -3.4094399999999996Zm0.16224 0.48672c-1.9487999999999996 0.4871999999999999 -0.81216 2.2732799999999997 0.4871999999999999 2.1110399999999996 1.1366399999999999 -0.16224 1.1366399999999999 -2.2732799999999997 -0.4871999999999999 -2.1110399999999996Z" clip-rule="evenodd" stroke-width="1"></path><path fill="#000000" fill-rule="evenodd" d="M28.691999999999997 14.08464c-2.59776 0.16224 -2.11056 2.92272 -0.32448 3.0849599999999997 1.62384 0.32448 2.76 -2.2732799999999997 0.32448 -3.0849599999999997Z" clip-rule="evenodd" stroke-width="1"></path><path fill="#000000" fill-rule="evenodd" d="M27.88032 13.9224c-0.9743999999999998 0.16224 -1.62384 1.29888 -1.1366399999999999 2.43552 0.4871999999999999 1.46112 2.59776 1.9487999999999996 3.40992 0.64944 0.9743999999999998 -1.62384 -0.4871999999999999 -3.40992 -2.2732799999999997 -3.0849599999999997Zm0.81168 0.4871999999999999c-0.16224 0 -0.16224 0 -0.64944 0.16224 -0.64944 0.16224 -0.9743999999999998 0.81216 -0.64944 1.62384 0.32496 0.81168 1.46112 1.1366399999999999 2.1110399999999996 0.4871999999999999 0.48672 -0.81216 0.32448 -1.78608 -0.81216 -2.2732799999999997 0.16272 0 0.16272 0 0 0Z" clip-rule="evenodd" stroke-width="1"></path><path fill="#000000" fill-rule="evenodd" d="M9.755999999999998 13.1496c-4.82784 4.2048 -5.28336 6.5040000000000004 -6.84096 8.52816 -0.93456 1.24608 -1.9487999999999996 5.11488 -1.3262399999999999 8.852640000000001 0.46703999999999996 2.4916799999999997 1.8686399999999999 5.13936 4.67184 7.008 6.073919999999999 4.0492799999999995 14.171999999999999 5.7624 21.336000000000002 4.0492799999999995 4.36032 -0.93456 8.721119999999999 -3.7377599999999997 12.458879999999999 -6.073919999999999 0.31152 -0.15552 0 -0.62304 -0.156 -0.46703999999999996 -3.8927999999999994 2.18016 -8.09808 4.983359999999999 -12.30288 5.76192 -7.008 1.4016 -14.95056 -0.31104 -20.71296 -4.2048 -2.4916799999999997 -1.71312 -3.7377599999999997 -4.0488 -4.36032 -6.54096 -0.62304 -3.27024 0.15552 -6.696 0.9340799999999999 -7.786560000000001 1.5576 -2.0246399999999998 2.1216 -4.6353599999999995 6.63792 -8.684159999999999 0 -0.156 -0.18384 -0.7536 -0.33936 -0.44256Z" clip-rule="evenodd" stroke-width="1"></path><path fill="#000000" fill-rule="evenodd" d="M30.24384 9.0384c-0.46703999999999996 -0.6225599999999999 -1.4016 -6.07344 -7.94256 -6.54096C18.72 2.1864 15.449759999999998 4.05504 13.1136 6.70224c-3.7377599999999997 4.2048 -4.0492799999999995 9.65568 -3.42624 9.65568 0.156 0 0.156 -0.15552 0.156 -0.15552 0 -3.1147199999999997 1.55712 -6.38544 3.8927999999999994 -8.87712 5.29536 -5.6064 12.147839999999999 -4.51632 14.79552 -0.31104 0.46703999999999996 0.77856 0.77856 1.71264 1.2456 2.4912 0.31152 0.46752 2.8032 0.312 2.4916799999999997 2.49216 0 0.31152 0.46752 0.31152 0.46752 0 0.15552 -1.86912 -0.93456 -2.4916799999999997 -2.49216 -2.9592Z" clip-rule="evenodd" stroke-width="1"></path><path fill="#000000" fill-rule="evenodd" d="M45.66192 12.309119999999998c-0.156 -1.71264 -1.7135999999999998 -3.5817599999999996 -3.42624 -3.4257599999999995 -0.77856 -1.5576 -1.7135999999999998 -3.27072 -3.27072 -4.3608 -2.8032 -2.0246399999999998 -7.63104 -1.4016 -10.27824 0.77856 -0.156 0.156 0 0.62304 0.31152 0.312 2.3356799999999995 -1.86912 6.852 -2.33664 9.49968 -0.46752 1.4016 0.9340799999999999 2.4916799999999997 2.8032 3.1147199999999997 4.2048 0 0.15552 0.31152 0.31152 0.46703999999999996 0.15552 1.4016 -0.46703999999999996 2.64768 1.0905599999999998 3.1152 2.8032 0.15552 0.312 0.6225599999999999 0.156 0.46703999999999996 0Z" clip-rule="evenodd" stroke-width="1"></path><path fill="#000000" fill-rule="evenodd" d="M31.80144 9.661439999999999c-0.156 0 -0.156 0.15552 -0.156 0.31104 0.156 0.312 0.312 0 2.0246399999999998 -0.15552 0.156 0 5.45088 -0.46703999999999996 5.45088 -0.46703999999999996 1.8686399999999999 -0.156 2.0246399999999998 0.15552 2.0246399999999998 -0.156 0.31104 -0.77856 -5.6064 -0.77856 -9.344159999999999 0.46752Z" clip-rule="evenodd" stroke-width="1"></path><path fill="#000000" fill-rule="evenodd" d="M28.68672 8.72736c-5.29536 -1.55712 -9.8112 -0.46703999999999996 -12.7704 1.8686399999999999 -0.312 0.156 0 0.62304 0.31152 0.312 3.1147199999999997 -2.18064 8.876639999999998 -2.64768 12.30288 -1.86912 0.312 0.15552 0.46752 -0.31152 0.156 -0.31152Z" clip-rule="evenodd" stroke-width="1"></path><path fill="#000000" fill-rule="evenodd" d="M33.20304 19.4736c-0.77904 1.55712 -3.1152 2.4912 -4.82784 2.8032 -0.312 0 -0.312 0.46703999999999996 0 0.46703999999999996 2.33616 0 4.51632 -0.77904 5.13936 -3.1152 0.12143999999999999 -0.45455999999999996 -0.156 -0.46703999999999996 -0.312 -0.15552Z" clip-rule="evenodd" stroke-width="1"></path><path fill="#000000" fill-rule="evenodd" d="M29.6208 22.1208c-1.0896 1.55712 -5.2943999999999996 2.9587199999999996 -6.22896 2.8032 -0.312 0 -0.312 0.46703999999999996 0 0.46703999999999996 1.0896 0.15552 3.8927999999999994 -0.46703999999999996 5.1388799999999994 -1.4016 0.46752 -0.31152 1.86912 -1.71312 1.4016 -2.0246399999999998 -0.15552 0 -0.31104 0.156 -0.31104 0.156Z" clip-rule="evenodd" stroke-width="1"></path><path fill="#000000" fill-rule="evenodd" d="M26.350559999999998 21.964799999999997c-1.55712 -0.15552 -6.85248 -2.3356799999999995 -7.786560000000001 -2.3356799999999995 -0.312 0 -0.312 0.46703999999999996 0 0.46703999999999996 0 0 4.0488 1.71312 5.29488 2.18016 3.1147199999999997 0.62304 2.9592 -0.31152 2.4916799999999997 -0.31152Z" clip-rule="evenodd" stroke-width="1"></path><path fill="#000000" fill-rule="evenodd" d="M47.063520000000004 17.448c-0.312 2.0246399999999998 -3.58224 4.51632 -4.5168 4.82784 -1.0896 0.46703999999999996 1.5576 1.71312 2.49216 5.7624 0 0.31104 0.46703999999999996 0.15552 0.46703999999999996 -0.156 -0.31104 -1.8686399999999999 -0.9340799999999999 -3.5817599999999996 -2.18016 -5.13936 1.5576 -0.77856 4.0492799999999995 -3.1147199999999997 4.2048 -5.4504 0 0 -0.46703999999999996 -0.156 -0.46703999999999996 0.15552Z" clip-rule="evenodd" stroke-width="1"></path><path fill="#000000" fill-rule="evenodd" d="M41.145599999999995 22.58736c-1.86912 -0.156 -2.0246399999999998 -0.156 -4.5168 0.31152 -0.31104 0 -0.31104 0.46703999999999996 0 0.46703999999999996 2.8032 0 2.49216 0 4.5168 -0.31152 0.31152 0 0.31152 -0.46703999999999996 0 -0.46703999999999996Z" clip-rule="evenodd" stroke-width="1"></path><path fill="#000000" fill-rule="evenodd" d="M34.76064 22.431359999999998c2.8032 2.18064 2.3356799999999995 1.7135999999999998 2.8032 2.18064 0.15552 0.31104 0.6225599999999999 0 0.31152 -0.312 -0.93456 -1.4016 -1.5576 -1.8686399999999999 -2.9592 -2.3356799999999995 -0.31152 -0.156 -0.46703999999999996 0.31152 -0.15552 0.46703999999999996Z" clip-rule="evenodd" stroke-width="1"></path><path fill="#000000" fill-rule="evenodd" d="M44.10432 32.08752c1.5576 -0.93456 2.8032 -2.49216 1.24608 -3.42624 -0.93456 -0.46752 -2.18064 -0.156 -3.1152 0.15552 -10.27824 3.1152 -14.483039999999999 -1.09008 -20.71248 -1.09008 -2.64768 0 -6.229439999999999 1.09008 -6.229439999999999 3.7377599999999997 0 2.8032 2.9592 2.8032 5.6064 2.8032 5.9184 -0.156 11.5248 1.8686399999999999 17.442719999999998 1.4016 2.6471999999999998 -0.156 6.54048 -1.09008 5.76192 -3.58224Zm-0.46703999999999996 0 0 -0.312c1.2456 -0.6225599999999999 2.4916799999999997 -2.0241599999999997 1.4016 -2.6471999999999998 -0.77856 -0.31152 -1.86912 0 -2.64768 0.31152 -10.27824 3.42624 -14.794559999999999 -0.77856 -21.023999999999997 -0.77856 -2.18064 0 -5.45088 0.77856 -5.45088 2.9587199999999996s2.64768 2.0246399999999998 4.82784 1.86912c5.9179200000000005 -0.156 11.5248 2.0241599999999997 17.442239999999998 1.71312 2.33616 -0.156 6.229439999999999 -0.93456 5.45088 -3.1152Z" clip-rule="evenodd" stroke-width="1"></path><path fill="#000000" fill-rule="evenodd" d="M18.563999999999997 31.464c6.54048 -1.55712 14.016 3.27072 24.761760000000002 0.46752 0.15552 0 0.15552 -0.156 0.15552 -0.312 -0.15552 -0.6225599999999999 -1.2456 0.62352 -6.852 0.46752 -7.63104 -0.15552 -12.147359999999999 -2.6471999999999998 -18.2208 -1.0896 -0.156 0.15504 -0.156 0.6225599999999999 0.15552 0.46656Z" clip-rule="evenodd" stroke-width="1"></path><path fill="#000000" fill-rule="evenodd" d="M12.33456 31.30848c-0.62304 1.86912 0.15552 3.58224 1.71312 4.2048 0.31104 0.156 0.46703999999999996 -0.31104 0.15552 -0.46703999999999996 -1.09008 -0.77856 -1.71312 -2.4916799999999997 -1.55712 -3.7377599999999997 0.15552 -0.15552 -0.312 -0.31104 -0.312 0Z" clip-rule="evenodd" stroke-width="1"></path><path fill="#000000" fill-rule="evenodd" d="M6.105119999999999 36.136320000000005C2.2118399999999996 37.0704 1.4327999999999999 39.56256 0.0312 42.8328c-0.15552 0.31152 0.312 0.46752 0.46752 0.156 1.55712 -2.8032 2.6471999999999998 -5.13936 5.76192 -6.38544 0.156 0 0 -0.46703999999999996 -0.15552 -0.46703999999999996Z" clip-rule="evenodd" stroke-width="1"></path><path fill="#000000" fill-rule="evenodd" d="M32.89152 39.25152c0.62304 0.6225599999999999 4.3608 4.2048 4.67184 3.8927999999999994 0.156 -0.15552 0.156 -0.31104 0 -0.31104 -0.46703999999999996 -0.62304 -0.9340799999999999 -1.09008 -1.4016 -1.5576 -0.46703999999999996 -0.46703999999999996 -2.9587199999999996 -2.6471999999999998 -3.27024 -2.18016 -0.15552 0 0 0.156 0 0.156Z" clip-rule="evenodd" stroke-width="1"></path><path fill="#000000" fill-rule="evenodd" d="M12.64608 37.69392c5.76192 2.18016 11.05728 3.42624 17.1312 1.71312 0.31104 -0.156 0.15552 -0.46703999999999996 -0.156 -0.46703999999999996 -4.98384 1.2456 -12.6144 -0.312 -16.8192 -1.7135999999999998 -0.156 0 -0.312 0.312 -0.156 0.46752Z" clip-rule="evenodd" stroke-width="1"></path><path fill="#000000" fill-rule="evenodd" d="M7.66224 19.1616c-0.46703999999999996 0.62304 -1.0896 1.24608 -1.4016 2.18016 -0.31152 0.93456 -0.15552 2.0246399999999998 0.62304 2.33616 1.5576 0.46703999999999996 2.4916799999999997 -2.18016 1.86912 -2.18016 -0.312 0 -0.156 0.31152 -0.62304 0.93456 -0.62304 1.0896 -1.86912 0.77856 -1.09008 -0.93456 0.6225599999999999 -1.4016 1.4687999999999999 -2.24544 1.00176 -2.40144 -0.05328 -0.04464 -0.27599999999999997 -0.072 -0.3792 0.06528Z" clip-rule="evenodd" stroke-width="1"></path><path fill="#000000" fill-rule="evenodd" d="M13.26864 11.68608c-0.31104 1.24608 -1.55712 2.4916799999999997 -1.8686399999999999 3.8932800000000003 -0.62304 2.0246399999999998 1.5576 2.9592 2.4916799999999997 1.24608 0.156 -0.312 0.62304 -1.4016 0.156 -1.4016 -0.312 0 -0.156 0.31152 -0.62304 0.93456 -0.62304 1.0896 -1.7135999999999998 0.6225599999999999 -1.24608 -0.46752 0.312 -0.77856 2.18064 -4.2048 1.4016 -4.3608 -0.15552 0 -0.31152 0 -0.31152 0.156Z" clip-rule="evenodd" stroke-width="1"></path><path fill="#000000" fill-rule="evenodd" d="M16.694879999999998 5.76864c-0.31104 0.31104 -0.9340799999999999 0.77856 -1.4016 1.2456 -0.31152 0.46703999999999996 -0.46703999999999996 1.4016 0.156 1.7135999999999998 1.2456 0.9340799999999999 2.8032 -1.24656 2.18016 -1.5576 -0.31152 -0.156 -0.31152 0.31104 -0.77856 0.6225599999999999 -0.46752 0.46752 -1.4016 0.46752 -0.77856 -0.6225599999999999 0.6225599999999999 -0.93456 1.2456 -1.4016 0.77856 -1.5576 0.15552 0 0 0 -0.156 0.156Z" clip-rule="evenodd" stroke-width="1"></path><path fill="#000000" fill-rule="evenodd" d="M36.00624 5.61216c0 0.62304 -0.156 1.09008 0.31152 1.55712 0.15552 0.312 0.77856 0.62304 1.2456 0.62304 1.7135999999999998 0 0.62304 -2.64768 0.156 -2.33616 -0.31152 0.156 0 0.312 0.15552 0.93456 0 0.156 0 0.62304 -0.15552 0.62304 -0.77856 0 -0.93456 -0.77856 -0.93456 -1.4016 -0.31152 -0.312 -0.77856 -0.312 -0.77856 0Z" clip-rule="evenodd" stroke-width="1"></path><path fill="#000000" fill-rule="evenodd" d="M6.105119999999999 28.97232c-0.31152 0.46703999999999996 -0.46703999999999996 0.93456 -0.62304 1.4016 -0.15552 0.77856 0 1.71312 0.62304 2.0246399999999998 0.77856 0.46703999999999996 1.71312 -0.46752 1.8686399999999999 -1.24608 0 -0.31152 0.156 -1.4016 -0.31104 -1.4016 -0.312 0 -0.156 0.312 -0.312 1.09008 -0.15552 0.46752 -0.77856 1.24608 -0.9340799999999999 0.77904 -0.46703999999999996 -0.62304 -0.156 -1.7135999999999998 0.15552 -2.33616 0 -0.46752 -0.31152 -0.62304 -0.46703999999999996 -0.31152Z" clip-rule="evenodd" stroke-width="1"></path></svg>