<svg xmlns="http://www.w3.org/2000/svg" fill="none" viewBox="0 0 48 48" height="48" width="48"><path stroke="#000000" stroke-linecap="round" stroke-linejoin="round" d="M24.65 9.857c0.856 0 1.659 -0.117 2.103 -0.654" stroke-width="1"></path><path stroke="#000000" stroke-linecap="round" stroke-linejoin="round" d="M30.226 9.53c0.577 0.609 1.018 0.818 2.033 0.911" stroke-width="1"></path><path stroke="#000000" stroke-linecap="round" stroke-linejoin="round" d="M26.33 11.83c1.027 -0.906 1.087 0.091 1.54 0.212 0.453 0.12 0.997 -0.936 1.661 0" stroke-width="1"></path><path stroke="#000000" stroke-linecap="round" stroke-linejoin="round" d="M23.672 8.75c0.644 -0.544 2.162 -1.54 3.08 -1.178" stroke-width="1"></path><path stroke="#000000" stroke-linecap="round" stroke-linejoin="round" d="M33.307 9.203c-0.645 -0.544 -2.163 -1.54 -3.08 -1.178" stroke-width="1"></path><path stroke="#000000" stroke-linecap="round" stroke-linejoin="round" d="M27.21 21.127c-2.731 0.12 -4.501 -2.99 -4.894 -5.014 -0.392 -2.024 0.049 -7.17 0.363 -8.91 0.392 -2.175 3.9 -4.628 6.856 -4.169 2.956 0.46 5.448 2.114 5.89 4.984 0.302 1.963 -1.057 6.433 -1.963 8.457 -0.906 2.024 -2.84 4.5 -6.253 4.652Z" stroke-width="1"></path><path fill="#000000" fill-rule="evenodd" d="M22.07 14.911c0.273 3.111 2.409 6.336 5.14 6.216 3.412 -0.151 6.006 -3.195 6.792 -5.793l-2.568 0.272c-0.211 -2.039 -0.31 -2.714 -3.624 -2.87 -3.217 -0.15 -3.444 0.212 -3.866 2.598 0 0 -1.28 -0.3 -1.873 -0.423Zm5.122 -1.42 0.285 0c1.994 0 3.023 0.165 3.023 1.743 -0.344 0.625 -4.535 1.032 -5.563 0 0.114 -1.754 0.847 -1.75 2.255 -1.743Z" clip-rule="evenodd" stroke-width="1"></path><path stroke="#000000" stroke-linecap="round" stroke-linejoin="round" d="M25.988 14.383c0.68 0.262 2.674 0.248 3.332 0.039" stroke-width="1"></path><path fill="#000000" d="M35.27 7.36c-4.573 -3.755 -7.17 -4.272 -11.9 -1.45 0.392 -0.996 3.209 -3.336 6.165 -2.876 2.956 0.46 5.04 2.212 5.735 4.326Z" stroke-width="1"></path><path stroke="#000000" stroke-linecap="round" stroke-linejoin="round" d="M22.578 17.188c-0.886 2.678 -2.917 9.545 -3.256 13.943 -0.422 5.497 1.027 10.692 0 13.713" stroke-width="1"></path><path stroke="#000000" stroke-linecap="round" stroke-linejoin="round" d="M21.422 15.234c-1.873 0.604 -5.12 7.138 -10.678 9.192 -4.446 1.643 -0.604 5.436 1.873 7.128l3.54 -2.038" stroke-width="1"></path><path stroke="#000000" stroke-linecap="round" stroke-linejoin="round" d="M34.606 13.31c0.604 0.141 1.45 1.148 0.906 2.175 -0.544 1.027 -1.088 1.269 -2.054 1.027" stroke-width="1"></path><path stroke="#000000" stroke-linecap="round" stroke-linejoin="round" d="M22.161 12.495c-0.597 -0.167 -1.581 -0.06 -1.598 1.103 -0.016 1.161 0.635 1.665 1.599 1.918" stroke-width="1"></path><path stroke="#000000" stroke-linecap="round" stroke-linejoin="round" d="M9.355 31.554c-0.628 2.416 -0.503 9.786 -0.362 13.169" stroke-width="1"></path><path stroke="#000000" stroke-linecap="round" stroke-linejoin="round" d="M8.75 27.063C6.112 30.303 1.58 38.352 1 44.296" stroke-width="1"></path><path stroke="#000000" d="M20.14 26.11c3.648 3.073 6.104 3.034 10.938 1.02" stroke-width="1"></path><path stroke="#000000" stroke-linecap="round" stroke-linejoin="round" d="M33.031 17.375c2.594 1.172 0.79 3.426 -2.533 11.098 -2.658 6.138 -2.8 13.511 -2.537 16.431" stroke-width="1"></path><path stroke="#000000" stroke-linecap="round" stroke-linejoin="round" d="m39.62 33.487 1.51 -0.604c2.924 -12.69 -1.257 -15.15 -4.075 -16.402" stroke-width="1"></path><path stroke="#000000" stroke-linecap="round" stroke-linejoin="round" d="M32.973 36.48c0.12 -0.12 4.781 -5.183 5.295 -4.156 0.513 1.027 -1.752 3.262 -2.145 3.806 -0.393 0.543 2.054 2.386 1.027 4.41 -1.027 2.023 -1.691 1.993 -2.386 1.872 -0.695 -0.12 -2.552 -0.438 -2.212 -1.253 0.34 -0.816 1.62 -0.62 2.292 -0.706" stroke-width="1"></path><path stroke="#000000" stroke-linecap="round" stroke-linejoin="round" d="M34.606 36.632c-0.242 -0.03 -5.135 -0.517 -4.773 0.57 0.29 0.87 3.413 1.4 4.984 1.54" stroke-width="1"></path><path stroke="#000000" stroke-linecap="round" stroke-linejoin="round" d="M34.666 38.773c-1.53 -0.02 -4.778 -0.34 -4.682 0.2 0.121 0.674 3.172 1.77 5.075 1.46" stroke-width="1"></path><path stroke="#000000" stroke-linecap="round" stroke-linejoin="round" d="M31.672 36.469c-0.151 -0.896 -1.192 -2.56 -2.11 -2.197 -0.919 0.363 -0.07 1.918 0.313 2.603" stroke-width="1"></path><path stroke="#000000" stroke-linecap="round" stroke-linejoin="round" d="M32.854 43.092c1.087 1.933 5.273 3.304 4.427 -2.858" stroke-width="1"></path><path stroke="#000000" stroke-linecap="round" d="M37.406 39.594c0.181 0.03 5.113 4.313 5.445 5.008" stroke-width="1"></path><path stroke="#000000" stroke-linecap="round" d="M42.006 28.262c2.688 0.815 4.38 2.627 4.923 5.285 0.435 2.127 -1.228 8.095 -2.235 11.478" stroke-width="1"></path><path stroke="#000000" stroke-linecap="round" d="M43.244 35.48c-0.972 1.32 -2.916 4.49 -2.916 6.618" stroke-width="1"></path><path stroke="#000000" stroke-linecap="round" d="M34.063 18.172c1.087 0.785 6.584 2.569 -2.538 13.14" stroke-width="1"></path><path stroke="#000000" stroke-linecap="round" d="M22.578 17.172c-1.993 1.812 -5.974 4.233 -7.243 7.314 -1.268 3.08 0.87 3.213 4.071 12.576" stroke-width="1"></path></svg>