<svg xmlns="http://www.w3.org/2000/svg" fill="none" viewBox="0 0 48 48" height="48" width="48"><path fill="#000000" fill-rule="evenodd" d="M7.1856 44.139359999999996c0.96192 -4.9684800000000005 5.93088 -8.975999999999999 10.579199999999998 -10.89936 0.32064 2.4048 2.0831999999999997 3.0456 4.4879999999999995 2.72496 3.20544 -0.32064 4.166879999999999 -1.4424 6.571199999999999 -3.0456 0.8016 -0.4804799999999999 2.2439999999999998 -1.60272 2.72496 -2.5641599999999998 10.418399999999998 0.64128 13.14336 4.00704 15.386879999999998 12.6624 0 0.32016 0.48096 0.16032 0.48096 -0.16032 -1.9233599999999997 -8.975999999999999 -5.1288 -12.6624 -16.02816 -13.464 -0.32064 0 -0.32064 0.32064 -0.64128 0.64128 -0.4804799999999999 0.64128 -1.76304 1.6032 -2.4043200000000002 2.0831999999999997 -2.4038399999999998 1.6032 -3.36576 2.56512 -6.25056 2.88576 -4.96896 0.6407999999999999 -2.72496 -3.36624 -4.16736 -2.88528 -4.96896 2.0831999999999997 -10.25808 6.571199999999999 -11.219999999999999 11.8608 0 0.32064 0.48096 0.32064 0.48096 0.16032Z" clip-rule="evenodd" stroke-width="1"></path><path fill="#000000" fill-rule="evenodd" d="M18.566399999999998 32.27856c0.15984 -4.4879999999999995 0.15984 -2.4048 -0.4814399999999999 -7.212959999999999 0 -0.32064 -0.4804799999999999 -0.32064 -0.4804799999999999 0 -0.16032 4.8086400000000005 0.16032 5.44944 0.32016 7.212959999999999 0.16032 0.32016 0.64128 0.32016 0.64128 0Z" clip-rule="evenodd" stroke-width="1"></path><path fill="#000000" fill-rule="evenodd" d="M29.14464 26.34816c0.16032 1.76304 0.8016 3.20592 2.56464 3.8467199999999995 0.32064 0.16032 0.48096 -0.32016 0.16032 -0.4804799999999999 -0.96192 -0.64128 -1.9233599999999997 -2.4048 -2.2439999999999998 -3.52656 -0.16032 -0.32016 -0.64128 -0.16032 -0.48096 0.16032Z" clip-rule="evenodd" stroke-width="1"></path><path fill="#000000" fill-rule="evenodd" d="M30.58704 20.73792c-0.16032 3.0456 -2.0831999999999997 6.25104 -3.04512 7.052639999999999 -2.56464 2.0831999999999997 -4.9296 0.5073599999999999 -7.3334399999999995 -1.73664 -0.16032 -0.16032 -0.6806399999999999 0.29375999999999997 -0.52032 0.45408 2.72448 2.56464 5.44944 4.32768 8.33472 1.9233599999999997 1.2820799999999999 -0.9614400000000001 2.8848 -4.00704 3.04512 -7.693439999999999 0 -0.16032 -0.48096 -0.32064 -0.48096 0Z" clip-rule="evenodd" stroke-width="1"></path><path fill="#000000" fill-rule="evenodd" d="M30.907680000000003 17.85312c0.64128 -0.64128 0.96192 -2.08368 0.8016 -2.88528 -0.16032 -0.8016 -0.8016 -1.12176 -1.2820799999999999 -0.9614400000000001 -0.16032 -1.12224 0.9614400000000001 -4.96896 -1.28256 -7.693919999999999 -3.52608 -4.16736 -11.8608 -2.72448 -14.104800000000001 0.64128 -1.60272 2.4043200000000002 -1.12176 5.289599999999999 -0.32064 8.01408 -0.8016 -0.16032 -1.4424 0.64128 -1.60272 1.4424 -0.48096 1.9233599999999997 1.12224 4.8086400000000005 2.4043200000000002 4.00704 0.32064 2.2439999999999998 0.64128 3.36624 2.08368 4.8086400000000005 0.16032 0.16032 0.64128 -0.16032 0.32064 -0.32064 -1.6032 -1.6032 -1.6032 -2.8848 -1.9233599999999997 -5.1288 0 -0.32064 -0.32064 -0.32064 -0.48096 -0.16032 -0.48096 0.6407999999999999 -0.8016 0.32064 -1.2820799999999999 -0.48096 -1.28256 -1.9233599999999997 -0.32064 -4.00704 0.8016 -3.20544 0.32016 0.16032 0.6407999999999999 0 0.6407999999999999 -0.48096 -1.4424 -5.12928 -1.4424 -9.13632 3.6864 -10.579199999999998 3.0456 -0.8011199999999999 6.89232 -0.6407999999999999 9.13632 1.76352 2.0831999999999997 2.4043200000000002 0.9614400000000001 5.1288 1.4424 7.8537599999999985 0 0.32064 0.48096 0.32064 0.64128 0.16032 0.16032 -0.48096 0.4804799999999999 -0.16032 0.4804799999999999 0.32064 0.16032 0.64128 -0.16032 2.08368 -0.6407999999999999 2.4043200000000002 -0.32064 0.32064 0 1.76304 0.16032 3.52608 0 0.16032 0.16032 0.16032 0.32016 0.16032 0.48096 0 0 -1.6032 0 -3.20544Z" clip-rule="evenodd" stroke-width="1"></path><path fill="#000000" fill-rule="evenodd" d="M15.681119999999998 15.4488c1.2820799999999999 -1.12176 1.9233599999999997 -3.52608 2.2439999999999998 -5.289599999999999 2.2439999999999998 -0.9614400000000001 8.815199999999999 -1.76256 10.2576 -1.76256 0.32112 0.8016 1.76352 4.166879999999999 2.24448 3.52608 0.16032 -0.32064 -0.16032 -0.32064 -0.64128 -1.12224 -0.64128 -1.2820799999999999 -0.96192 -2.8848 -1.28256 -2.8848 -1.60272 -0.32064 -11.21952 0.8016 -11.379839999999998 2.0831999999999997 -0.16032 1.6032 -0.6407999999999999 4.16784 -1.76304 5.289599999999999 -0.16032 0 0.16032 0.48096 0.32064 0.16032Z" clip-rule="evenodd" stroke-width="1"></path><path fill="#000000" fill-rule="evenodd" d="M25.1376 15.609119999999999c-0.16032 1.4424 -0.02784 1.4035199999999999 0.61344 2.8463999999999996 0.33024 0.25248 0.48096 0.15984 0.48096 -0.1608 -0.16032 -2.0831999999999997 -0.13296 -1.2431999999999999 -0.61344 -2.8463999999999996 0 -0.32016 -0.48096 -0.15984 -0.48096 0.1608Z" clip-rule="evenodd" stroke-width="1"></path><path fill="#000000" fill-rule="evenodd" d="M26.08128 19.26528c-0.48096 0.48096 -1.9233599999999997 0.8016 -2.56464 0.32064 -0.32016 -0.16032 -0.4804799999999999 0.16032 -0.32016 0.32064 0.8016 0.96192 2.8848 0.8016 3.52608 -0.16032 0.64128 -0.9614400000000001 -0.64128 -1.76304 -0.8016 -1.4424 -0.32064 0.16032 0.64128 0.48096 0.16032 0.9614400000000001Z" clip-rule="evenodd" stroke-width="1"></path><path fill="#000000" fill-rule="evenodd" d="M18.4056 15.28848c1.44288 -1.9233599999999997 4.8086400000000005 0.64128 5.44992 -0.64128 0.16032 -0.32016 0.16032 -1.4424 -0.32064 -1.2815999999999999 -0.48096 0.15984 0.16032 1.12176 -0.48096 0.9614400000000001 -1.9233599999999997 -0.8016 -4.00704 -1.28256 -4.96896 0.6407999999999999 -0.32016 0.32064 0.16032 0.64128 0.32064 0.32064Z" clip-rule="evenodd" stroke-width="1"></path><path fill="#000000" d="M24.816959999999998 13.52544c0.32064 0 0.16032 0.32064 0.64128 0.64128 2.8848 -2.72496 4.16736 -0.64128 4.00704 -0.48096 0 0.16032 -0.16032 0.16032 -0.32064 0 -1.4424 -1.4424 -3.04512 1.76304 -4.00704 0.96192 -0.32064 -0.16032 -0.8016 -1.12176 -0.32064 -1.12176Z" stroke-width="1"></path><path fill="#000000" fill-rule="evenodd" d="M21.13056 22.02c1.6032 0.16032 1.76304 0 3.52608 -0.4804799999999999 0.32064 0 0.32064 -0.48096 0 -0.48096 -2.4043200000000002 0 -2.0831999999999997 0 -3.36576 0.48096 -0.48096 0 -0.48096 0.4804799999999999 -0.16032 0.4804799999999999Z" clip-rule="evenodd" stroke-width="1"></path><path fill="#000000" fill-rule="evenodd" d="M25.9392 21.2184c2.2439999999999998 0.16032 1.76304 -0.16032 3.04512 -0.16032 0.32064 0 0.48096 -0.48096 0.16032 -0.48096 -1.4424 -0.4804799999999999 -2.0831999999999997 -0.15984 -3.04512 0.16032 -0.48096 0.16032 -0.48096 0.64128 -0.16032 0.48096Z" clip-rule="evenodd" stroke-width="1"></path><path fill="#000000" fill-rule="evenodd" d="M28.823999999999998 21.859199999999998c-0.16032 -1.12176 0.16032 1.12224 -7.05216 0.8016 -1.28256 0 0.16032 3.6864 4.32768 2.56464 2.24352 -0.6407999999999999 3.04512 -2.0831999999999997 2.72448 -3.36576Zm-0.48096 0.32112c0 0.48096 -0.32016 1.12176 -0.8016 1.4424 -1.2815999999999999 0.96192 -4.166879999999999 1.2820799999999999 -5.28912 -0.32064 0 0 3.20592 0.48096 6.0912 -1.12176Z" clip-rule="evenodd" stroke-width="1"></path><path fill="#000000" fill-rule="evenodd" d="M25.297919999999998 26.82912c0.96192 0.16032 1.76304 0 2.56464 -0.8016 0.32064 -0.16032 0 -0.6407999999999999 -0.32064 -0.32064 -0.48096 0.32064 -2.4043200000000002 0.64128 -2.4043200000000002 0.96192l0.16032 0.16032Z" clip-rule="evenodd" stroke-width="1"></path><path fill="#000000" fill-rule="evenodd" d="M18.40608 16.24992c-0.32064 0 -0.32064 0.48096 0 0.48096 1.2815999999999999 0 2.0831999999999997 0.32064 3.6864 -0.32064 0.16032 0 0.32016 -0.16032 0.32016 -0.32064 0 -0.9614400000000001 -0.6407999999999999 -0.6407999999999999 -0.4804799999999999 -0.32064 -0.32064 0.48096 -0.64128 -0.32016 -3.52608 0.48096Z" clip-rule="evenodd" stroke-width="1"></path><path fill="#000000" fill-rule="evenodd" d="M19.2072 17.21184c0.48096 1.12224 2.2439999999999998 -0.16032 1.4424 -0.9614400000000001 -0.8016 -0.8016 -1.9233599999999997 0.16032 -1.4424 0.9614400000000001Z" clip-rule="evenodd" stroke-width="1"></path><path fill="#000000" fill-rule="evenodd" d="M26.25936 15.288c0 0.8016 0.8016 0.64128 1.28256 0.64128 1.12176 -0.32016 0.9614400000000001 -0.4804799999999999 1.9233599999999997 -0.8016 0.32016 -0.15984 0.16032 -0.4804799999999999 -0.16032 -0.4804799999999999 -2.4048 0.48096 -2.2439999999999998 0.64128 -2.4048 0.64128 0 0 -0.15984 0 -0.15984 -0.16032 -0.16032 -0.32064 -0.48096 -0.16032 -0.48096 0.16032Z" clip-rule="evenodd" stroke-width="1"></path><path fill="#000000" fill-rule="evenodd" d="M27.541919999999998 15.12816c-1.12224 0.8016 0.16032 2.0831999999999997 1.12176 1.2815999999999999 0.8016 -0.9614400000000001 -0.48096 -1.9228800000000001 -1.12176 -1.2815999999999999Z" clip-rule="evenodd" stroke-width="1"></path><path fill="#000000" fill-rule="evenodd" d="M35.71632 13.044479999999998c0.32064 -1.9233599999999997 2.4043200000000002 -1.76304 2.8848 -0.64128 0.32064 1.28256 -1.76304 1.44288 -1.2820799999999999 3.52656 0 0.32016 0.48096 0.16032 0.48096 -0.16032 -0.32064 -1.44288 0.9614400000000001 -1.44288 1.4424 -2.56464 0.48096 -0.8016 -0.16032 -2.2439999999999998 -1.4424 -2.56464 -2.4043200000000002 -0.64128 -3.0456 2.4043200000000002 -2.4043200000000002 2.56464 0.16032 0 0.32064 0 0.32064 -0.16032Z" clip-rule="evenodd" stroke-width="1"></path><path fill="#000000" fill-rule="evenodd" d="M37.96032 16.73088c-0.16032 -0.16032 -0.8016 0 -0.96192 0.32064 -0.32016 0.32016 -0.16032 0.9614400000000001 0.64128 1.12176 0.96192 0 1.12224 -1.4424 0.32064 -1.4424Z" clip-rule="evenodd" stroke-width="1"></path><path fill="#000000" fill-rule="evenodd" d="M40.52448 12.4032c0.32064 -1.12224 1.9233599999999997 -1.28256 2.2439999999999998 0 0.16032 0.6407999999999999 -0.6407999999999999 0.8011199999999999 -1.12176 1.4424 -0.32064 0.6407999999999999 -0.16032 1.2820799999999999 0 1.9233599999999997 0 0.32064 0.48096 0.16032 0.48096 0 0 -0.48096 -0.16032 -1.12224 0.16032 -1.4424 0.32016 -0.48096 1.9233599999999997 -0.8016 1.2815999999999999 -2.4048 -0.32016 -0.8011199999999999 -1.2815999999999999 -1.2815999999999999 -2.24352 -0.9614400000000001 -0.96192 0.32064 -1.6032 1.6032 -1.12176 1.76304l0.32016 -0.32064Z" clip-rule="evenodd" stroke-width="1"></path><path fill="#000000" fill-rule="evenodd" d="M42.12768 16.41024c-0.16032 -0.32064 -0.64128 0 -0.96192 0.48096 -0.16032 0.48096 0 1.12176 0.96192 0.9614400000000001 0.8016 -0.4804799999999999 0.8016 -1.2815999999999999 0 -1.4424Zm-0.16032 0.48096c0.16032 0 0.16032 0 0 0Z" clip-rule="evenodd" stroke-width="1"></path><path fill="#000000" fill-rule="evenodd" d="M44.85216 11.7624c1.28256 -1.12176 2.4048 -0.32064 2.4048 0.32064 0 0.96192 -1.92384 0.64128 -1.28256 3.36576 0 0.32064 0.48096 0.16032 0.48096 -0.16032 -0.32064 -1.9233599999999997 0.6407999999999999 -1.60272 1.2820799999999999 -2.4038399999999998 0.48096 -0.64128 0.32064 -1.76352 -0.64128 -2.2439999999999998 -1.60272 -0.8016 -3.04512 0.8016 -2.72448 1.12176 0.16032 0.16032 0.32064 0.16032 0.4804799999999999 0Z" clip-rule="evenodd" stroke-width="1"></path><path fill="#000000" fill-rule="evenodd" d="M46.29503999999999 16.09008c-0.16032 -0.16032 -0.8016 0 -0.96192 0.48096 -0.16032 0.32064 -0.16032 0.9614400000000001 0.8016 1.12176 1.2820799999999999 0 0.9614400000000001 -1.76304 0.16032 -1.60272Z" clip-rule="evenodd" stroke-width="1"></path><path fill="#000000" fill-rule="evenodd" d="M0.45408 23.78352c0.96192 -1.76304 2.72496 -1.12224 2.72496 -0.32064s-0.8016 0.96192 -1.28256 1.6032C1.416 25.7064 1.416 26.508 1.416 27.1488c0 0.32064 0.4804799999999999 0.32064 0.4804799999999999 0 0.32064 -2.56464 1.12224 -1.6032 1.92384 -2.8848 0.32016 -0.64128 0.32016 -1.6032 -0.48096 -2.08368 -2.08368 -1.44288 -3.8467199999999995 1.4424 -3.20592 1.76304 0.16032 0 0.16032 -0.16032 0.32064 -0.16032Z" clip-rule="evenodd" stroke-width="1"></path><path fill="#000000" fill-rule="evenodd" d="M5.1024 23.46288c1.2820799999999999 -1.4424 2.5641599999999998 -0.8016 2.5641599999999998 -0.16032 0 0.32064 -0.32016 0.48096 -0.6407999999999999 0.64128 -1.12224 0.8016 -0.96192 1.9233599999999997 -0.8016 3.36576 0 0.16032 0.16032 0.16032 0.32064 0.16032 0.48096 0 0.16032 -0.48096 0.32064 -1.76304 0.16032 -0.8016 0.48096 -0.9614400000000001 0.8016 -1.2820799999999999 2.5641599999999998 -1.76304 -0.8016 -4.648319999999999 -2.88528 -1.44288 -0.32064 0.32064 0.16032 0.64128 0.32064 0.48096Z" clip-rule="evenodd" stroke-width="1"></path><path fill="#000000" fill-rule="evenodd" d="M10.2312 23.4624c0.8016 -1.2820799999999999 1.92384 -0.48096 1.92384 0.16032 0 1.12176 -1.6032 0.8016 -1.6032 3.52608 0 0.32064 0.48096 0.32064 0.48096 0 0.16032 -1.9233599999999997 1.12224 -1.60272 1.76304 -2.5641599999999998 1.12224 -1.6032 -1.12176 -3.36624 -2.4043200000000002 -2.08416 -1.12176 0.96192 -0.32064 1.28256 -0.16032 0.96192Z" clip-rule="evenodd" stroke-width="1"></path><path fill="#000000" fill-rule="evenodd" d="M2.2176 28.11072c-0.1608 -0.48096 -1.92384 -0.16032 -1.28256 1.12224 0.32064 0.9614400000000001 1.60272 0.6407999999999999 1.76304 -0.16032 0 -0.48096 -0.16032 -0.8016 -0.48096 -0.96192Z" clip-rule="evenodd" stroke-width="1"></path><path fill="#000000" fill-rule="evenodd" d="M6.5447999999999995 28.27152c-0.16032 -0.64128 -2.0831999999999997 0.16032 -1.2820799999999999 1.2820799999999999 0.48096 0.8016 1.6032 0.48096 1.76304 -0.32064 0 -0.48096 0 -0.8016 -0.48096 -0.9614400000000001Z" clip-rule="evenodd" stroke-width="1"></path><path fill="#000000" fill-rule="evenodd" d="M11.0328 28.431359999999998c0 -0.32064 -0.48096 -0.32064 -0.96192 -0.32064 -1.12176 0.32064 -0.9614400000000001 1.9233599999999997 0.32064 1.9233599999999997 0.8016 -0.16032 1.12176 -1.12176 0.64128 -1.6032Z" clip-rule="evenodd" stroke-width="1"></path><path fill="#000000" fill-rule="evenodd" d="M24.01584 28.59216c-0.32064 0.64128 -0.32064 0.64128 0 1.76304 0 0.32064 0.48096 0.32064 0.48096 0 0.32016 -0.9614400000000001 0.32016 -0.9614400000000001 0 -1.76304 0 -0.32064 -0.48096 -0.32064 -0.48096 0Z" clip-rule="evenodd" stroke-width="1"></path><path fill="#000000" fill-rule="evenodd" d="M25.458239999999996 28.431839999999998c-0.16032 0.64128 -0.32064 0.9614400000000001 0.32064 1.9233599999999997 0 0.32064 0.48096 0.16032 0.48096 -0.16032 0 -1.12176 0.16032 -0.8016 -0.32064 -1.76304 0 -0.32064 -0.48096 -0.32064 -0.48096 0Z" clip-rule="evenodd" stroke-width="1"></path><path fill="#000000" fill-rule="evenodd" d="M26.90064 27.95088c0 0.64128 -0.16032 0.8016 0.48096 1.76352 0.16032 0.32016 0.48096 0.16032 0.48096 -0.16032 -0.16032 -0.8016 0.16032 -0.8016 -0.48096 -1.76304 -0.16032 -0.32064 -0.64128 -0.16032 -0.48096 0.15984Z" clip-rule="evenodd" stroke-width="1"></path></svg>