<svg xmlns="http://www.w3.org/2000/svg" fill="none" viewBox="0 0 48 48" height="48" width="48"><path fill="#000000" fill-rule="evenodd" d="M7.437119999999999 22.744799999999998c-0.46415999999999996 1.39344 -2.1672 2.7863999999999995 -1.2384 6.03696 0.9288 2.9409599999999996 4.0248 4.48896 6.8111999999999995 5.72736 6.50112 2.63184 9.287519999999999 2.1672 14.859839999999998 -0.46415999999999996 3.8697599999999994 -1.8576 6.50112 -2.0126399999999998 6.192 -10.37136 2.16672 -0.46415999999999996 3.096 -3.40512 2.4768 -5.41776 -0.4814399999999999 -1.8432 -1.7486399999999998 -2.35536 -2.94144 -1.2384 0 -0.77376 0 -0.9283199999999999 -0.3096 -0.9283199999999999s-0.15456 0.30912 -0.15456 1.39296c0 0.15456 0.3096 0.3096 0.46415999999999996 0.15456 0.9288 -1.08336 2.01216 -0.6192 2.32176 0.7742399999999999 0.6192 1.8576 -0.3096 4.48896 -2.32176 4.64352 -0.9288 0.15504 0.9288 6.5016 -3.25056 8.823360000000001 -0.6192 0.3096 -5.10816 2.32176 -6.65616 2.7863999999999995 -2.01216 0.6192 -3.5601599999999998 0.77376 -5.72736 0.3096 -2.4768 -0.46463999999999994 -7.1203199999999995 -2.1672 -9.288 -4.0248 -1.39296 -1.08336 -1.9526399999999997 -2.3328 -1.9526399999999997 -4.1904 0 -2.16672 1.05024 -1.91328 1.66944 -5.0088 0.46463999999999994 -2.4768 0.21888 -3.0791999999999997 1.30224 -7.4136 0.15504 -0.6192 0.0648 -1.18848 -0.2448 -1.18848 -0.6192 -0.15456 -1.39296 7.4304 -2.01216 9.59712Z" clip-rule="evenodd" stroke-width="1"></path><path fill="#000000" fill-rule="evenodd" d="M16.41504 25.066079999999996c1.548 0.9288 2.0126399999999998 1.39344 3.5601599999999998 0.15504 0.6192 -0.46415999999999996 0.7742399999999999 -0.3096 0.46463999999999994 -0.3096 -0.3096 0.15456 -0.15504 0.46463999999999994 0.15456 0.46463999999999994 0.9288 -0.15504 0.9288 -1.2384 -0.15456 -1.08384 -0.6192 0.15456 -1.08384 0.6192 -1.70256 0.77376 -1.08384 0.46463999999999994 -2.63184 -1.2384 -3.096 -0.46415999999999996 -0.3096 0.46463999999999994 0.3096 0.9288 0.46415999999999996 0.6192 0.3096 0 0.3096 0 0.3096 -0.15504Z" clip-rule="evenodd" stroke-width="1"></path><path fill="#000000" fill-rule="evenodd" d="M22.142400000000002 23.0544c0.46463999999999994 0.46463999999999994 0.6192 1.08384 0.15504 1.7030399999999999 -0.3096 0.15456 0 0.6192 0.3096 0.3096 1.08336 -0.6192 1.2384 -2.0126399999999998 -0.15504 -2.4768 -0.3096 0 -0.6192 0.3096 -0.3096 0.46415999999999996Z" clip-rule="evenodd" stroke-width="1"></path><path fill="#000000" fill-rule="evenodd" d="M15.022079999999999 24.75648c0 -2.01216 1.08336 -2.01216 0.9288 -2.4768 -0.15504 -0.30912 -0.9288 0.31008 -1.2384 0.6192 -0.7742399999999999 0.7742399999999999 -0.15504 2.32224 0.15456 2.1672 0.15504 0 0.3096 -0.15456 0.15504 -0.3096Z" clip-rule="evenodd" stroke-width="1"></path><path fill="#000000" fill-rule="evenodd" d="M14.24784 30.63888c0.6192 -0.6192 0.9288 -1.2384 0.6192 -2.01216 0 -0.3096 -0.46415999999999996 -0.15504 -0.46415999999999996 0 0 0.3096 -0.15504 0.6192 -0.3096 0.9288 0 0.15456 -0.15456 0.6192 -0.15456 0.77376 -0.15504 0.3096 0.15456 0.6192 0.30912 0.3096Z" clip-rule="evenodd" stroke-width="1"></path><path fill="#000000" fill-rule="evenodd" d="M24.15456 30.329279999999997c-0.15456 -0.3096 -0.15456 -0.6192 -0.3096 -0.9288 -0.15456 -0.46415999999999996 -0.46415999999999996 -0.9283199999999999 -0.6192 -1.2384 0 -0.30912 -0.46415999999999996 -0.30912 -0.46415999999999996 0 0 1.08384 0.3096 1.7030399999999999 0.9288 2.1672 0.3096 0.46463999999999994 0.77376 0.15504 0.46415999999999996 0Z" clip-rule="evenodd" stroke-width="1"></path><path fill="#000000" fill-rule="evenodd" d="M14.55744 29.865599999999997c2.94144 -0.77376 2.63184 -1.2384 5.572799999999999 -0.6192 3.4055999999999997 0.6192 3.7152 0.77376 3.7152 0.46415999999999996 0 -0.3096 0 -0.3096 -2.1672 -0.9283199999999999 -4.644 -1.39344 -4.3344 -0.46463999999999994 -7.1203199999999995 0.6192 -0.46463999999999994 0.15456 -0.31008 0.6192 0 0.46415999999999996Z" clip-rule="evenodd" stroke-width="1"></path><path fill="#000000" fill-rule="evenodd" d="M17.34384 31.568159999999995c0.6192 -0.15456 2.32176 -0.15504 3.25056 0.3096 0.3096 0.15456 0.46463999999999994 -0.15504 0.3096 -0.3096 -1.08336 -0.9288 -2.32176 -1.08336 -3.7152 -0.3096 -0.30912 0 -0.15456 0.3096 0.15504 0.3096Z" clip-rule="evenodd" stroke-width="1"></path><path fill="#000000" fill-rule="evenodd" d="M10.533119999999998 16.398239999999998c1.548 0.6192 4.48896 2.78592 6.03696 1.8576 0.6192 -0.31008 0.9288 -1.5484799999999999 0.46415999999999996 -1.5484799999999999 -0.46415999999999996 0 0 0.7742399999999999 -0.77376 1.08384 -0.9288 0.46415999999999996 -3.096 -1.2384 -5.572799999999999 -1.70256 -0.3096 -0.3096 -0.46415999999999996 0.15456 -0.15456 0.3096Z" clip-rule="evenodd" stroke-width="1"></path><path fill="#000000" fill-rule="evenodd" d="M13.4736 19.494239999999998c0 -0.3096 -0.77328 -0.3096 -1.2379200000000001 0.46463999999999994 -0.3096 0.6192 -0.15456 1.39296 0.7742399999999999 1.54752 1.2384 0.15504 1.39296 -1.70256 0.46415999999999996 -2.01216Z" clip-rule="evenodd" stroke-width="1"></path><path fill="#000000" fill-rule="evenodd" d="M21.05904 16.8624c1.39296 2.1672 4.48896 -1.39296 7.739519999999999 0.15504 0.3096 0.15504 0.46463999999999994 -0.3096 0.15504 -0.46415999999999996 -1.39344 -0.7742399999999999 -3.56064 -1.08384 -5.572799999999999 -0.15504 -0.77376 0.3096 -1.39296 0.7742399999999999 -2.01216 0 -0.15504 0 -0.46463999999999994 0.3096 -0.3096 0.46463999999999994Z" clip-rule="evenodd" stroke-width="1"></path><path fill="#000000" fill-rule="evenodd" d="M24.6192 18.87456c-0.3096 0.15504 -0.77376 0.6192 -0.77376 1.2384 0 0.77376 0.77376 1.39296 1.548 0.9288 1.70256 -0.9288 0 -2.63136 -0.7742399999999999 -2.1672Z" clip-rule="evenodd" stroke-width="1"></path><path fill="#000000" fill-rule="evenodd" d="M10.687679999999999 19.958399999999997c0.9288 -0.6192 3.8697599999999994 -0.6192 4.17936 0.6192 0 0.31008 0.46463999999999994 0.15504 0.46463999999999994 -0.15456 -0.15504 -2.01216 -3.5601599999999998 -2.4768 -4.9536 -0.9288 -0.15456 0.46463999999999994 0.15504 0.7742399999999999 0.3096 0.46463999999999994Z" clip-rule="evenodd" stroke-width="1"></path><path fill="#000000" fill-rule="evenodd" d="M22.91664 20.73216c0.77376 -1.2384 1.39296 -1.2384 2.32176 -1.2384 0.77376 0 1.08336 -0.15456 1.548 -0.15456 0.9288 0.15456 0.9288 0.6192 1.2384 0.3096 0.3096 -0.46463999999999994 -1.39344 -1.39344 -3.7152 -0.9288 -0.9288 0.15456 -1.39344 0.9288 -1.70256 1.8576 -0.3096 0.15456 0.15456 0.46415999999999996 0.3096 0.15456Z" clip-rule="evenodd" stroke-width="1"></path><path fill="#000000" fill-rule="evenodd" d="M30.036959999999997 6.646559999999999c-0.46415999999999996 2.16672 -1.2384 5.41776 -3.096 6.65616 -1.08336 0.6192 -1.54752 0.15456 -1.54752 0.6192 0 0.46415999999999996 1.39296 0.30912 2.01216 0 2.7863999999999995 -1.548 2.9409599999999996 -5.41824 3.096 -7.1208 0.15456 -0.46415999999999996 -0.3096 -0.46415999999999996 -0.46463999999999994 -0.15456Z" clip-rule="evenodd" stroke-width="1"></path><path fill="#000000" fill-rule="evenodd" d="M26.32176 8.659199999999998c0.15504 -0.31008 -0.3096 -0.46463999999999994 -0.46415999999999996 -0.15504 -2.32176 6.8111999999999995 -7.58496 5.41776 -7.58496 6.03696 -0.15456 0.77376 6.03696 1.548 8.0496 -5.8824000000000005Z" clip-rule="evenodd" stroke-width="1"></path><path fill="#000000" fill-rule="evenodd" d="M11.15232 15.0048c4.64352 0.7742399999999999 8.0496 -2.3212800000000002 9.59712 -6.50112 0.15456 -0.3096 -0.3096 -0.46415999999999996 -0.46463999999999994 -0.15456 -1.39296 3.4055999999999997 -5.41728 6.65616 -9.13248 6.192 -0.3096 0 -0.3096 0.46415999999999996 0 0.46415999999999996Z" clip-rule="evenodd" stroke-width="1"></path><path fill="#000000" fill-rule="evenodd" d="M35.45472 16.552799999999998c0.6192 -1.08336 2.01216 -5.10816 1.70256 -7.429919999999999 -0.15456 -2.01216 -1.548 -3.4055999999999997 -3.5601599999999998 -3.4055999999999997 -8.823360000000001 -13.156799999999999 -28.946399999999997 -1.2384 -25.5408 11.91936 0 0.15456 0.15504 0.15456 0.3096 0.15456 0.7742399999999999 -0.15456 -2.01216 -4.3344 2.4768 -10.37088 6.192 -8.51376 17.4912 -8.35872 22.29024 -1.08384 0 0.15504 0.15456 0.15504 0.3096 0.15504 4.3344 -0.3096 3.40512 5.72736 1.548 10.061279999999998 -0.15504 0.15504 0.3096 0.3096 0.46415999999999996 0Z" clip-rule="evenodd" stroke-width="1"></path><path fill="#000000" fill-rule="evenodd" d="M29.72736 8.96832c-0.46463999999999994 2.1672 -0.6192 4.644 1.08336 6.192 0.15504 0.15456 0.46463999999999994 -0.15504 0.3096 -0.31008 -1.08336 -1.08336 -0.9283199999999999 -4.02432 -0.9283199999999999 -5.7268799999999995 0 -0.46463999999999994 -0.46463999999999994 -0.46463999999999994 -0.46463999999999994 -0.15504Z" clip-rule="evenodd" stroke-width="1"></path><path fill="#000000" fill-rule="evenodd" d="M32.51376 13.766399999999999c0 -0.9283199999999999 0.3096 -3.2500799999999996 0.9288 -4.48848 0.15456 -0.3096 -0.15456 -0.46463999999999994 -0.3096 -0.3096 -1.2384 1.548 -1.39296 3.096 -0.9288 4.79856 0 0.46415999999999996 0.46463999999999994 0.3096 0.3096 0Z" clip-rule="evenodd" stroke-width="1"></path><path fill="#000000" fill-rule="evenodd" d="M13.93824 34.04448c-5.26272 2.9409599999999996 -8.20368 6.192 -9.442079999999999 12.538079999999999 0 0.3096 0.3096 0.46463999999999994 0.46415999999999996 0.15504 1.2384 -5.263199999999999 4.644 -9.288 9.288 -12.228959999999999 0.15456 -0.3096 0 -0.6192 -0.31008 -0.46415999999999996Z" clip-rule="evenodd" stroke-width="1"></path><path fill="#000000" fill-rule="evenodd" d="M32.51376 31.258079999999996c5.572799999999999 1.2384 9.13248 8.20416 10.52592 13.62192 0.15456 0.3096 0.46415999999999996 0.15504 0.46415999999999996 -0.15504 -1.548 -6.34608 -4.3344 -12.847679999999999 -10.83552 -14.086079999999999 -0.46415999999999996 0.15504 -0.46415999999999996 0.46463999999999994 -0.15456 0.6192Z" clip-rule="evenodd" stroke-width="1"></path><path fill="#000000" fill-rule="evenodd" d="M36.073919999999994 35.12784c-1.08384 4.0248 0.3096 6.8111999999999995 1.8576 10.526399999999999 0.15456 0.30912 0.46415999999999996 0.15456 0.46415999999999996 -0.15504 -1.08336 -3.25056 -2.32176 -6.96576 -1.8576 -10.21632 0 -0.3096 -0.46415999999999996 -0.46463999999999994 -0.46415999999999996 -0.15504Z" clip-rule="evenodd" stroke-width="1"></path><path fill="#000000" fill-rule="evenodd" d="M11.15232 46.89216c0.3096 -0.46415999999999996 2.01216 -2.63136 2.01216 -3.096 0 -0.6192 -0.46415999999999996 -1.70256 0.3096 -1.70256 0.46415999999999996 0 0.9288 0.7742399999999999 1.2384 1.08384 0.9288 1.08336 1.8576 2.16672 3.25056 2.63136 2.32176 0.77376 5.263199999999999 -0.6192 4.9536 0.46463999999999994 0 0.15456 -0.3096 0.30912 -0.46463999999999994 0.30912 -0.15456 0 -0.15456 0.15504 -0.3096 0.6192 -0.15456 0.3096 -0.46415999999999996 0.6192 -0.15456 0.7742399999999999 0.3096 0.15456 0.6192 -0.46463999999999994 0.77376 -1.08384 0.9288 -0.3096 0.9288 -0.9283199999999999 0.6192 -1.39296 -0.6192 -0.77376 -1.548 -0.3096 -3.4055999999999997 -0.3096 -3.25056 0 -4.3344 -3.096 -5.572799999999999 -3.8697599999999994 -0.77328 -0.46463999999999994 -1.54752 -0.3096 -1.85712 0.3096s0 1.548 0 1.8576 -1.548 2.63136 -1.70256 2.7863999999999995c-0.3096 0.6192 0.15456 0.9283199999999999 0.3096 0.6192Z" clip-rule="evenodd" stroke-width="1"></path><path fill="#000000" fill-rule="evenodd" d="M14.71248 42.09408c-1.08336 -3.56064 0.77376 -5.263199999999999 1.8576 -4.0248 0.6192 0.6192 0.9288 -1.39296 2.7863999999999995 -1.8576 0.9283199999999999 -0.15456 1.2384 0.46463999999999994 1.08336 1.39344 0 0.3096 0.3096 0.6192 0.6192 0.46415999999999996 1.548 -0.7742399999999999 2.01216 0 1.548 1.08336 -0.15504 0.3096 0.3096 0.6192 0.6192 0.46463999999999994 1.39296 -0.9288 2.1672 -0.15504 1.70256 1.08336a0.34224 0.34224 0 0 0 0.46463999999999994 0.46463999999999994c0.6192 -0.15504 0.77376 0.77376 0.46415999999999996 1.2384 -0.3096 0.6192 -2.01216 2.9409599999999996 -3.25056 2.9409599999999996 -0.3096 0 -0.3096 0.46415999999999996 0 0.46415999999999996 1.548 -0.15456 3.40512 -2.4768 3.8697599999999994 -3.096 0.3096 -0.77376 0.15456 -2.01216 -0.6192 -2.32176 0.46415999999999996 -1.70256 -0.77376 -2.4768 -2.1672 -2.01216 0.15504 -1.2384 -0.77376 -2.01216 -2.32176 -1.548 -0.15504 -2.01216 -2.63136 -2.32176 -4.644 0.3096 -1.70256 -1.08336 -3.8697599999999994 1.08336 -2.4768 5.10816 0.15504 0.3096 0.6192 0.15504 0.46463999999999994 -0.15456Z" clip-rule="evenodd" stroke-width="1"></path><path fill="#000000" fill-rule="evenodd" d="M15.486239999999999 39.92688c1.2384 0.3096 1.8576 -2.01216 2.1672 -2.63136 0.3096 -0.6192 0.6192 -0.6192 0.46463999999999994 -0.9288 -0.3096 -0.3096 -0.9288 0.46415999999999996 -1.2384 0.77376 -0.46463999999999994 0.6192 -0.46463999999999994 1.08384 -0.7742399999999999 1.548 -0.46415999999999996 1.08384 -0.77376 0.6192 -0.9288 0.9288 0 0.15504 0.15504 0.3096 0.3096 0.3096Z" clip-rule="evenodd" stroke-width="1"></path></svg>